<mxfile host="app.diagrams.net" agent="Mozilla/5.0 (Macintosh; Intel Mac OS X 10_15_7) AppleWebKit/537.36 (KHTML, like Gecko) Chrome/133.0.0.0 Safari/537.36" version="26.0.16">
  <diagram id="C5RBs43oDa-KdzZeNtuy" name="Page-1">
    <mxGraphModel dx="984" dy="1828" grid="1" gridSize="10" guides="1" tooltips="1" connect="1" arrows="1" fold="1" page="1" pageScale="1" pageWidth="827" pageHeight="1169" math="0" shadow="0">
      <root>
        <mxCell id="WIyWlLk6GJQsqaUBKTNV-0" />
        <mxCell id="WIyWlLk6GJQsqaUBKTNV-1" parent="WIyWlLk6GJQsqaUBKTNV-0" />
        <mxCell id="Kz519cWDDe5uX1cGoVlB-38" value="Admin" style="shape=ellipse;html=1;dashed=0;whiteSpace=wrap;perimeter=ellipsePerimeter;" parent="WIyWlLk6GJQsqaUBKTNV-1" vertex="1">
          <mxGeometry x="300" y="-1100" width="100" height="50" as="geometry" />
        </mxCell>
        <mxCell id="Kz519cWDDe5uX1cGoVlB-40" value="Recipient" style="shape=ellipse;html=1;dashed=0;whiteSpace=wrap;perimeter=ellipsePerimeter;" parent="WIyWlLk6GJQsqaUBKTNV-1" vertex="1">
          <mxGeometry x="480" y="-1160" width="100" height="50" as="geometry" />
        </mxCell>
        <mxCell id="Kz519cWDDe5uX1cGoVlB-41" value="Manage customer info" style="shape=ellipse;html=1;dashed=0;whiteSpace=wrap;perimeter=ellipsePerimeter;" parent="WIyWlLk6GJQsqaUBKTNV-1" vertex="1">
          <mxGeometry x="110" y="-1020" width="150" height="50" as="geometry" />
        </mxCell>
        <mxCell id="Kz519cWDDe5uX1cGoVlB-42" value="Create delivery order" style="shape=ellipse;html=1;dashed=0;whiteSpace=wrap;perimeter=ellipsePerimeter;" parent="WIyWlLk6GJQsqaUBKTNV-1" vertex="1">
          <mxGeometry x="280" y="-970" width="120" height="50" as="geometry" />
        </mxCell>
        <mxCell id="Kz519cWDDe5uX1cGoVlB-43" value="Generate delivery note" style="shape=ellipse;html=1;dashed=0;whiteSpace=wrap;perimeter=ellipsePerimeter;" parent="WIyWlLk6GJQsqaUBKTNV-1" vertex="1">
          <mxGeometry x="330" y="-870" width="140" height="50" as="geometry" />
        </mxCell>
        <mxCell id="Kz519cWDDe5uX1cGoVlB-45" value="Update delivery status" style="shape=ellipse;html=1;dashed=0;whiteSpace=wrap;perimeter=ellipsePerimeter;" parent="WIyWlLk6GJQsqaUBKTNV-1" vertex="1">
          <mxGeometry x="460" y="-970" width="140" height="50" as="geometry" />
        </mxCell>
        <mxCell id="Kz519cWDDe5uX1cGoVlB-46" value="Track delivery status" style="shape=ellipse;html=1;dashed=0;whiteSpace=wrap;perimeter=ellipsePerimeter;" parent="WIyWlLk6GJQsqaUBKTNV-1" vertex="1">
          <mxGeometry x="465" y="-1080" width="130" height="50" as="geometry" />
        </mxCell>
        <mxCell id="Kz519cWDDe5uX1cGoVlB-47" value="" style="endArrow=classic;html=1;rounded=0;fontSize=12;startSize=8;endSize=8;curved=1;exitX=0.5;exitY=1;exitDx=0;exitDy=0;entryX=0.5;entryY=0;entryDx=0;entryDy=0;" parent="WIyWlLk6GJQsqaUBKTNV-1" source="Kz519cWDDe5uX1cGoVlB-40" target="Kz519cWDDe5uX1cGoVlB-46" edge="1">
          <mxGeometry width="50" height="50" relative="1" as="geometry">
            <mxPoint x="380" y="-800" as="sourcePoint" />
            <mxPoint x="430" y="-850" as="targetPoint" />
          </mxGeometry>
        </mxCell>
        <mxCell id="Kz519cWDDe5uX1cGoVlB-48" value="" style="endArrow=classic;html=1;rounded=0;fontSize=12;startSize=8;endSize=8;curved=1;exitX=0;exitY=1;exitDx=0;exitDy=0;entryX=1;entryY=0;entryDx=0;entryDy=0;" parent="WIyWlLk6GJQsqaUBKTNV-1" source="Kz519cWDDe5uX1cGoVlB-38" target="Kz519cWDDe5uX1cGoVlB-41" edge="1">
          <mxGeometry width="50" height="50" relative="1" as="geometry">
            <mxPoint x="540" y="-1100" as="sourcePoint" />
            <mxPoint x="290" y="-1020" as="targetPoint" />
          </mxGeometry>
        </mxCell>
        <mxCell id="Kz519cWDDe5uX1cGoVlB-49" value="" style="endArrow=classic;html=1;rounded=0;fontSize=12;startSize=8;endSize=8;curved=1;exitX=0;exitY=1;exitDx=0;exitDy=0;entryX=0.5;entryY=0;entryDx=0;entryDy=0;" parent="WIyWlLk6GJQsqaUBKTNV-1" target="Kz519cWDDe5uX1cGoVlB-42" edge="1">
          <mxGeometry width="50" height="50" relative="1" as="geometry">
            <mxPoint x="347" y="-1050" as="sourcePoint" />
            <mxPoint x="270" y="-1006" as="targetPoint" />
          </mxGeometry>
        </mxCell>
        <mxCell id="Kz519cWDDe5uX1cGoVlB-50" value="" style="endArrow=classic;html=1;rounded=0;fontSize=12;startSize=8;endSize=8;curved=1;exitX=1;exitY=1;exitDx=0;exitDy=0;entryX=0.643;entryY=0;entryDx=0;entryDy=0;entryPerimeter=0;" parent="WIyWlLk6GJQsqaUBKTNV-1" source="Kz519cWDDe5uX1cGoVlB-38" target="Kz519cWDDe5uX1cGoVlB-43" edge="1">
          <mxGeometry width="50" height="50" relative="1" as="geometry">
            <mxPoint x="387" y="-1060" as="sourcePoint" />
            <mxPoint x="380" y="-980" as="targetPoint" />
            <Array as="points">
              <mxPoint x="450" y="-960" />
            </Array>
          </mxGeometry>
        </mxCell>
        <mxCell id="Kz519cWDDe5uX1cGoVlB-51" value="" style="endArrow=classic;html=1;rounded=0;fontSize=12;startSize=8;endSize=8;curved=1;exitX=1;exitY=0.5;exitDx=0;exitDy=0;entryX=0;entryY=0;entryDx=0;entryDy=0;" parent="WIyWlLk6GJQsqaUBKTNV-1" source="Kz519cWDDe5uX1cGoVlB-38" target="Kz519cWDDe5uX1cGoVlB-45" edge="1">
          <mxGeometry width="50" height="50" relative="1" as="geometry">
            <mxPoint x="380" y="-800" as="sourcePoint" />
            <mxPoint x="430" y="-850" as="targetPoint" />
          </mxGeometry>
        </mxCell>
        <mxCell id="Kz519cWDDe5uX1cGoVlB-55" value="" style="html=1;labelBackgroundColor=#ffffff;startArrow=none;startFill=0;startSize=6;endArrow=classic;endFill=1;endSize=6;jettySize=auto;orthogonalLoop=1;strokeWidth=1;dashed=1;fontSize=14;rounded=0;curved=1;exitX=0.5;exitY=1;exitDx=0;exitDy=0;entryX=0.5;entryY=0;entryDx=0;entryDy=0;" parent="WIyWlLk6GJQsqaUBKTNV-1" source="Kz519cWDDe5uX1cGoVlB-46" target="Kz519cWDDe5uX1cGoVlB-45" edge="1">
          <mxGeometry width="60" height="60" relative="1" as="geometry">
            <mxPoint x="370" y="-800" as="sourcePoint" />
            <mxPoint x="430" y="-860" as="targetPoint" />
          </mxGeometry>
        </mxCell>
        <mxCell id="Kz519cWDDe5uX1cGoVlB-56" value="" style="html=1;labelBackgroundColor=#ffffff;startArrow=none;startFill=0;startSize=6;endArrow=classic;endFill=1;endSize=6;jettySize=auto;orthogonalLoop=1;strokeWidth=1;dashed=1;fontSize=14;rounded=0;curved=1;exitX=0.5;exitY=1;exitDx=0;exitDy=0;entryX=0.5;entryY=0;entryDx=0;entryDy=0;" parent="WIyWlLk6GJQsqaUBKTNV-1" source="Kz519cWDDe5uX1cGoVlB-42" target="Kz519cWDDe5uX1cGoVlB-43" edge="1">
          <mxGeometry width="60" height="60" relative="1" as="geometry">
            <mxPoint x="349.5" y="-930" as="sourcePoint" />
            <mxPoint x="349.5" y="-870" as="targetPoint" />
            <Array as="points" />
          </mxGeometry>
        </mxCell>
        <mxCell id="Kz519cWDDe5uX1cGoVlB-58" value="include" style="text;html=1;align=center;verticalAlign=middle;whiteSpace=wrap;rounded=0;" parent="WIyWlLk6GJQsqaUBKTNV-1" vertex="1">
          <mxGeometry x="350" y="-920" width="60" height="30" as="geometry" />
        </mxCell>
        <mxCell id="Kz519cWDDe5uX1cGoVlB-59" value="extend" style="text;html=1;align=center;verticalAlign=middle;whiteSpace=wrap;rounded=0;" parent="WIyWlLk6GJQsqaUBKTNV-1" vertex="1">
          <mxGeometry x="535" y="-1020" width="60" height="30" as="geometry" />
        </mxCell>
        <mxCell id="Kz519cWDDe5uX1cGoVlB-60" value="DeliveryOrder" style="swimlane;fontStyle=1;align=center;verticalAlign=top;childLayout=stackLayout;horizontal=1;startSize=26;horizontalStack=0;resizeParent=1;resizeParentMax=0;resizeLast=0;collapsible=1;marginBottom=0;whiteSpace=wrap;html=1;" parent="WIyWlLk6GJQsqaUBKTNV-1" vertex="1">
          <mxGeometry x="300" y="-510" width="160" height="170" as="geometry" />
        </mxCell>
        <mxCell id="Kz519cWDDe5uX1cGoVlB-61" value="- order_id : str&lt;div&gt;- recipient: Recipient&lt;/div&gt;&lt;div&gt;- package: Package&lt;/div&gt;&lt;div&gt;- delivery_status: str&lt;/div&gt;" style="text;strokeColor=none;fillColor=none;align=left;verticalAlign=top;spacingLeft=4;spacingRight=4;overflow=hidden;rotatable=0;points=[[0,0.5],[1,0.5]];portConstraint=eastwest;whiteSpace=wrap;html=1;" parent="Kz519cWDDe5uX1cGoVlB-60" vertex="1">
          <mxGeometry y="26" width="160" height="84" as="geometry" />
        </mxCell>
        <mxCell id="Kz519cWDDe5uX1cGoVlB-62" value="" style="line;strokeWidth=1;fillColor=none;align=left;verticalAlign=middle;spacingTop=-1;spacingLeft=3;spacingRight=3;rotatable=0;labelPosition=right;points=[];portConstraint=eastwest;strokeColor=inherit;" parent="Kz519cWDDe5uX1cGoVlB-60" vertex="1">
          <mxGeometry y="110" width="160" height="8" as="geometry" />
        </mxCell>
        <mxCell id="Kz519cWDDe5uX1cGoVlB-63" value="+ create_order()&lt;div&gt;+ update_status()&lt;/div&gt;" style="text;strokeColor=none;fillColor=none;align=left;verticalAlign=top;spacingLeft=4;spacingRight=4;overflow=hidden;rotatable=0;points=[[0,0.5],[1,0.5]];portConstraint=eastwest;whiteSpace=wrap;html=1;" parent="Kz519cWDDe5uX1cGoVlB-60" vertex="1">
          <mxGeometry y="118" width="160" height="52" as="geometry" />
        </mxCell>
        <mxCell id="Kz519cWDDe5uX1cGoVlB-64" value="Recipient" style="swimlane;fontStyle=1;align=center;verticalAlign=top;childLayout=stackLayout;horizontal=1;startSize=26;horizontalStack=0;resizeParent=1;resizeParentMax=0;resizeLast=0;collapsible=1;marginBottom=0;whiteSpace=wrap;html=1;" parent="WIyWlLk6GJQsqaUBKTNV-1" vertex="1">
          <mxGeometry x="140" y="-290" width="160" height="150" as="geometry" />
        </mxCell>
        <mxCell id="Kz519cWDDe5uX1cGoVlB-65" value="- name: str&lt;div&gt;- contact: str&lt;/div&gt;&lt;div&gt;- address: str&lt;/div&gt;&lt;div&gt;&lt;br&gt;&lt;/div&gt;" style="text;strokeColor=none;fillColor=none;align=left;verticalAlign=top;spacingLeft=4;spacingRight=4;overflow=hidden;rotatable=0;points=[[0,0.5],[1,0.5]];portConstraint=eastwest;whiteSpace=wrap;html=1;" parent="Kz519cWDDe5uX1cGoVlB-64" vertex="1">
          <mxGeometry y="26" width="160" height="74" as="geometry" />
        </mxCell>
        <mxCell id="Kz519cWDDe5uX1cGoVlB-66" value="" style="line;strokeWidth=1;fillColor=none;align=left;verticalAlign=middle;spacingTop=-1;spacingLeft=3;spacingRight=3;rotatable=0;labelPosition=right;points=[];portConstraint=eastwest;strokeColor=inherit;" parent="Kz519cWDDe5uX1cGoVlB-64" vertex="1">
          <mxGeometry y="100" width="160" height="8" as="geometry" />
        </mxCell>
        <mxCell id="Kz519cWDDe5uX1cGoVlB-67" value="+ get_details()&lt;div&gt;+ update_info()&lt;/div&gt;" style="text;strokeColor=none;fillColor=none;align=left;verticalAlign=top;spacingLeft=4;spacingRight=4;overflow=hidden;rotatable=0;points=[[0,0.5],[1,0.5]];portConstraint=eastwest;whiteSpace=wrap;html=1;" parent="Kz519cWDDe5uX1cGoVlB-64" vertex="1">
          <mxGeometry y="108" width="160" height="42" as="geometry" />
        </mxCell>
        <mxCell id="Kz519cWDDe5uX1cGoVlB-68" value="Package" style="swimlane;fontStyle=1;align=center;verticalAlign=top;childLayout=stackLayout;horizontal=1;startSize=26;horizontalStack=0;resizeParent=1;resizeParentMax=0;resizeLast=0;collapsible=1;marginBottom=0;whiteSpace=wrap;html=1;" parent="WIyWlLk6GJQsqaUBKTNV-1" vertex="1">
          <mxGeometry x="460" y="-290" width="160" height="150" as="geometry" />
        </mxCell>
        <mxCell id="Kz519cWDDe5uX1cGoVlB-69" value="- package_id: str&lt;div&gt;- dimensions: str&lt;/div&gt;&lt;div&gt;- weight: float&lt;/div&gt;" style="text;strokeColor=none;fillColor=none;align=left;verticalAlign=top;spacingLeft=4;spacingRight=4;overflow=hidden;rotatable=0;points=[[0,0.5],[1,0.5]];portConstraint=eastwest;whiteSpace=wrap;html=1;" parent="Kz519cWDDe5uX1cGoVlB-68" vertex="1">
          <mxGeometry y="26" width="160" height="84" as="geometry" />
        </mxCell>
        <mxCell id="Kz519cWDDe5uX1cGoVlB-70" value="" style="line;strokeWidth=1;fillColor=none;align=left;verticalAlign=middle;spacingTop=-1;spacingLeft=3;spacingRight=3;rotatable=0;labelPosition=right;points=[];portConstraint=eastwest;strokeColor=inherit;" parent="Kz519cWDDe5uX1cGoVlB-68" vertex="1">
          <mxGeometry y="110" width="160" height="8" as="geometry" />
        </mxCell>
        <mxCell id="Kz519cWDDe5uX1cGoVlB-71" value="+ get_package_details()" style="text;strokeColor=none;fillColor=none;align=left;verticalAlign=top;spacingLeft=4;spacingRight=4;overflow=hidden;rotatable=0;points=[[0,0.5],[1,0.5]];portConstraint=eastwest;whiteSpace=wrap;html=1;" parent="Kz519cWDDe5uX1cGoVlB-68" vertex="1">
          <mxGeometry y="118" width="160" height="32" as="geometry" />
        </mxCell>
        <mxCell id="Kz519cWDDe5uX1cGoVlB-72" value="DeliveryNote" style="swimlane;fontStyle=1;align=center;verticalAlign=top;childLayout=stackLayout;horizontal=1;startSize=26;horizontalStack=0;resizeParent=1;resizeParentMax=0;resizeLast=0;collapsible=1;marginBottom=0;whiteSpace=wrap;html=1;" parent="WIyWlLk6GJQsqaUBKTNV-1" vertex="1">
          <mxGeometry x="300" y="-750" width="160" height="150" as="geometry" />
        </mxCell>
        <mxCell id="Kz519cWDDe5uX1cGoVlB-73" value="- note_id: str&lt;div&gt;- order: DeliveryOrder&lt;/div&gt;&lt;div&gt;- date_issued: str&lt;/div&gt;" style="text;strokeColor=none;fillColor=none;align=left;verticalAlign=top;spacingLeft=4;spacingRight=4;overflow=hidden;rotatable=0;points=[[0,0.5],[1,0.5]];portConstraint=eastwest;whiteSpace=wrap;html=1;" parent="Kz519cWDDe5uX1cGoVlB-72" vertex="1">
          <mxGeometry y="26" width="160" height="64" as="geometry" />
        </mxCell>
        <mxCell id="Kz519cWDDe5uX1cGoVlB-74" value="" style="line;strokeWidth=1;fillColor=none;align=left;verticalAlign=middle;spacingTop=-1;spacingLeft=3;spacingRight=3;rotatable=0;labelPosition=right;points=[];portConstraint=eastwest;strokeColor=inherit;" parent="Kz519cWDDe5uX1cGoVlB-72" vertex="1">
          <mxGeometry y="90" width="160" height="8" as="geometry" />
        </mxCell>
        <mxCell id="Kz519cWDDe5uX1cGoVlB-75" value="+ generate_note()&lt;div&gt;+ print_note()&lt;/div&gt;" style="text;strokeColor=none;fillColor=none;align=left;verticalAlign=top;spacingLeft=4;spacingRight=4;overflow=hidden;rotatable=0;points=[[0,0.5],[1,0.5]];portConstraint=eastwest;whiteSpace=wrap;html=1;" parent="Kz519cWDDe5uX1cGoVlB-72" vertex="1">
          <mxGeometry y="98" width="160" height="52" as="geometry" />
        </mxCell>
        <mxCell id="Kz519cWDDe5uX1cGoVlB-76" value="" style="endArrow=classic;html=1;rounded=0;fontSize=12;startSize=8;endSize=8;curved=1;entryX=0.5;entryY=0;entryDx=0;entryDy=0;" parent="WIyWlLk6GJQsqaUBKTNV-1" target="Kz519cWDDe5uX1cGoVlB-60" edge="1">
          <mxGeometry width="50" height="50" relative="1" as="geometry">
            <mxPoint x="380" y="-600" as="sourcePoint" />
            <mxPoint x="410" y="-490" as="targetPoint" />
          </mxGeometry>
        </mxCell>
        <mxCell id="Kz519cWDDe5uX1cGoVlB-77" value="Associated with" style="text;html=1;align=center;verticalAlign=middle;whiteSpace=wrap;rounded=0;" parent="WIyWlLk6GJQsqaUBKTNV-1" vertex="1">
          <mxGeometry x="390" y="-565.5" width="60" height="30" as="geometry" />
        </mxCell>
        <mxCell id="Kz519cWDDe5uX1cGoVlB-78" value="" style="endArrow=classic;html=1;rounded=0;fontSize=12;startSize=8;endSize=8;curved=1;exitX=-0.012;exitY=1;exitDx=0;exitDy=0;exitPerimeter=0;entryX=0.75;entryY=0;entryDx=0;entryDy=0;" parent="WIyWlLk6GJQsqaUBKTNV-1" source="Kz519cWDDe5uX1cGoVlB-63" target="Kz519cWDDe5uX1cGoVlB-64" edge="1">
          <mxGeometry width="50" height="50" relative="1" as="geometry">
            <mxPoint x="360" y="-440" as="sourcePoint" />
            <mxPoint x="410" y="-490" as="targetPoint" />
          </mxGeometry>
        </mxCell>
        <mxCell id="Kz519cWDDe5uX1cGoVlB-79" value="" style="endArrow=classic;html=1;rounded=0;fontSize=12;startSize=8;endSize=8;curved=1;exitX=0.981;exitY=0.981;exitDx=0;exitDy=0;exitPerimeter=0;entryX=0.25;entryY=0;entryDx=0;entryDy=0;" parent="WIyWlLk6GJQsqaUBKTNV-1" source="Kz519cWDDe5uX1cGoVlB-63" target="Kz519cWDDe5uX1cGoVlB-68" edge="1">
          <mxGeometry width="50" height="50" relative="1" as="geometry">
            <mxPoint x="360" y="-440" as="sourcePoint" />
            <mxPoint x="410" y="-490" as="targetPoint" />
          </mxGeometry>
        </mxCell>
        <mxCell id="Kz519cWDDe5uX1cGoVlB-80" value="has a" style="text;html=1;align=center;verticalAlign=middle;whiteSpace=wrap;rounded=0;" parent="WIyWlLk6GJQsqaUBKTNV-1" vertex="1">
          <mxGeometry x="475" y="-350" width="60" height="30" as="geometry" />
        </mxCell>
        <mxCell id="Kz519cWDDe5uX1cGoVlB-81" value="has a" style="text;html=1;align=center;verticalAlign=middle;whiteSpace=wrap;rounded=0;" parent="WIyWlLk6GJQsqaUBKTNV-1" vertex="1">
          <mxGeometry x="220" y="-340" width="60" height="30" as="geometry" />
        </mxCell>
      </root>
    </mxGraphModel>
  </diagram>
</mxfile>
